<svg enable-background="new 0 0 250 262" viewBox="0 0 250 262" xmlns="http://www.w3.org/2000/svg"><path d="m66.5 9.1h-59v31h59l11-15.5z" fill="#449970"/><path d="m91.5 44.4h-84v31h84l11-15.5z" fill="#6bad5e"/><path d="m116.5 79.7h-109v31h109l11-15.5z" fill="#88ba7d"/><path d="m141.5 115.1h-134v31h134l11-15.5z" fill="#f3e54f"/><path d="m171.5 150.4h-164v31h164l11-15.5z" fill="#e8b641"/><path d="m211.5 185.7h-204v31h204l11-15.5z" fill="#de8647"/><path d="m231.5 221.1h-224v31h224l11-15.5z" fill="#c6362c"/><g fill="#fff"><path d="m12.5 32.7 5.8-16.5h5.1l5.8 16.5h-4.4l-3.2-10.6-.7-2.6h-.1l-.7 2.6-3.3 10.6zm3.8-3.7v-2.9h9.2v2.9z"/><path d="m14.2 68v-16.5h8c2 0 3.5.4 4.5 1.2s1.4 1.9 1.4 3.3c0 .9-.3 1.7-.8 2.4-.6.7-1.4 1.1-2.5 1.3 1.3.2 2.2.6 2.8 1.3s.9 1.6.9 2.6c0 1.4-.5 2.5-1.5 3.3s-2.4 1.1-4.4 1.1zm4.2-9.7h3.1c1.5 0 2.3-.6 2.3-1.8s-.8-1.8-2.3-1.8h-3.1zm0 6.7h3.5c.8 0 1.4-.2 1.8-.5s.6-.8.6-1.4-.2-1-.6-1.3-1-.5-1.8-.5h-3.5z"/><path d="m28.8 98.8c-.3 1.1-.8 2.1-1.5 2.8s-1.5 1.3-2.5 1.6-2 .5-3.2.5c-1.7 0-3.1-.3-4.3-1s-2.1-1.6-2.8-2.9-1-2.8-1-4.6.3-3.3 1-4.6c.6-1.3 1.6-2.2 2.8-2.9s2.6-1 4.3-1c1.1 0 2.2.2 3.2.5s1.8.8 2.5 1.5 1.1 1.5 1.4 2.6l-3.8 1.5c-.2-1-.6-1.7-1.1-2.1s-1.2-.6-2-.6-1.5.2-2 .6-1 1-1.3 1.7-.5 1.7-.5 2.8.1 2.1.4 2.8c.3.8.7 1.3 1.3 1.7s1.3.6 2.1.6 1.5-.2 2-.7c.6-.4.9-1.1 1.1-2z"/><path d="m21.2 122c2.6 0 4.6.7 5.9 2.2s2.1 3.5 2.1 6.1-.7 4.7-2.1 6.1-3.4 2.1-5.9 2.1h-7v-16.5zm-.4 13.3c1.4 0 2.4-.4 3.1-1.3.6-.8 1-2.1 1-3.7s-.3-2.9-1-3.7-1.7-1.3-3.1-1.3h-2.3v10z"/><path d="m14.2 174.5v-16.5h12.8v3.3h-8.5v3.3h6.8v3.1h-6.8v3.4h8.9v3.3h-13.2z"/><path d="m27 197.3h-8.5v3.5h6.8v3.3h-6.8v6.3h-4.3v-16.4h12.8z"/><path d="m21 244.8c-1.5 0-2.8-.3-3.9-1s-2-1.6-2.7-2.9c-.6-1.3-1-2.8-1-4.6s.3-3.3 1-4.6 1.6-2.2 2.9-2.9 2.7-1 4.4-1c1.9 0 3.4.3 4.5 1s2 1.7 2.7 3.2l-4 1.6c-.2-.8-.6-1.5-1.1-1.8-.6-.4-1.2-.6-2.1-.6-.8 0-1.5.2-2.1.6s-1 1-1.3 1.7c-.3.8-.5 1.7-.5 2.8 0 1.2.2 2.1.5 2.9s.8 1.4 1.4 1.7 1.4.6 2.3.6c.5 0 .9-.1 1.3-.2s.8-.3 1-.5c.3-.2.5-.5.7-.9.2-.3.2-.7.2-1.2v-.2h-3.8v-2.9h7.6v8.9h-2.9l-.3-3.9.7.6c-.3 1.1-1 2-1.9 2.6-1 .7-2.1 1-3.6 1z"/><path d="m35.6 22.9 2.8 1.2v1l-4.4-1.9v-.6l4.4-1.9v1z"/><path d="m43.4 25.5h-1.1l3-6h-3.2v-1h4.4v.6z"/><path d="m47.2 23.4c-.1-.4-.1-.9-.1-1.4s0-1 .1-1.4.2-.8.4-1.1.4-.6.8-.8.7-.3 1.1-.3.8.1 1.1.3.6.4.8.8c.2.3.3.7.4 1.1s.1.9.1 1.4 0 1-.1 1.4-.2.8-.4 1.1-.4.6-.8.8c-.3.2-.7.3-1.1.3s-.8-.1-1.1-.3-.6-.4-.8-.8-.3-.7-.4-1.1zm2.3 1.2c.9 0 1.4-.9 1.4-2.6s-.5-2.6-1.4-2.6-1.4.9-1.4 2.6.5 2.6 1.4 2.6z"/><path d="m35.1 31.1 1.6 1.5h-.7l-1.4-1.4v1.4h-.6v-4.3h.6v2.5l1.2-1.1h.8z"/><path d="m39.6 29.6-1.1 3.1h-.4l-1.3-4.2h.6l.9 3 1-3h.4l1 3 .9-3h.6l-1.3 4.2h-.4z"/><path d="m43.6 28.4v1.7c.2-.2.5-.3.8-.3.4 0 .8.2 1 .5.2.2.3.6.3 1v1.4h-.6v-1.4c0-.3-.1-.5-.2-.7s-.3-.3-.6-.3-.6.1-.8.4v1.9h-.5v-4.3h.6z"/><path d="m47.1 32.7h-.6l2-4.2h.5z"/><path d="m49.6 29.8h.6v.3c.1-.1.2-.2.3-.2.2-.1.3-.1.5-.1.4 0 .7.2 1 .5.3-.3.7-.5 1.1-.5s.8.2 1 .5c.2.2.3.5.3 1v1.4h-.6v-1.5c0-.2-.1-.4-.2-.6s-.3-.2-.5-.2c-.3 0-.6.1-.9.4v.5 1.4h-.6v-1.5c0-.2-.1-.4-.2-.6s-.3-.2-.5-.2c-.3 0-.6.1-.8.4v1.9h-.6v-2.9z"/><path d="m55.3 29.1-.4-.1c0-.2.1-.3.3-.4.1-.1.3-.2.5-.2s.4.1.5.2.2.3.2.5-.1.4-.3.6l-.5.5h.7v.4h-1.5v-.2l.8-.9c.1-.1.2-.3.2-.4s0-.1-.1-.2-.1-.1-.2-.1c0 0-.1.1-.2.3z"/><path d="m57.2 32.7h-.6l2-4.2h.6z"/><path d="m61.5 32.7v-.3c-.2.2-.5.3-.9.3-.3 0-.5-.1-.7-.2s-.4-.3-.5-.5-.2-.5-.2-.8.1-.5.2-.8c.1-.2.3-.4.5-.5s.4-.2.7-.2.6.1.9.3v-.3h.5v2.8h-.5zm0-.9v-1.1c-.2-.3-.5-.4-.8-.4s-.5.1-.7.3-.3.4-.3.7.1.5.3.7.4.3.7.3c.3-.1.6-.2.8-.5z"/><path d="m63.6 29.8v.3c.2-.2.5-.3.8-.3.4 0 .8.2 1 .5.2.2.3.6.3 1v1.4h-.6v-1.4c0-.3-.1-.5-.2-.7s-.3-.3-.6-.3-.6.1-.8.4v1.9h-.6v-2.8z"/><path d="m35.2 60.3h-1.1l3-6h-3.1v-1h4.4v.6z"/><path d="m39.1 58.2c-.1-.4-.1-.9-.1-1.4s0-1 .1-1.4.2-.8.4-1.1.4-.6.8-.8.7-.3 1.1-.3.8.1 1.1.3.6.4.8.8c.2.3.3.7.4 1.1s.1.9.1 1.4 0 1-.1 1.4-.2.8-.4 1.1-.4.6-.8.8c-.3.2-.7.3-1.1.3s-.8-.1-1.1-.3-.6-.4-.8-.8-.3-.7-.4-1.1zm2.3 1.2c.9 0 1.4-.9 1.4-2.6s-.5-2.6-1.4-2.6-1.4.9-1.4 2.6.4 2.6 1.4 2.6z"/><path d="m51.3 60.3v-.4c-.4.4-.9.5-1.4.5-.4 0-.8-.1-1.2-.3s-.7-.5-.9-.9-.3-.8-.3-1.3.1-.9.3-1.3.5-.7.9-.9c.3-.2.7-.3 1.1-.3.6 0 1.1.2 1.5.5v-.4h.9v4.7h-.9zm-.1-1.5v-1.8c-.3-.4-.8-.7-1.3-.7-.4 0-.8.2-1.1.5s-.4.7-.4 1.1.1.8.4 1.1.7.5 1.1.5c.6 0 1-.3 1.3-.7zm-.5-4h-.7l-1-1.5h1z"/><path d="m57.1 54.5-1.4.7v-1l1.6-.9h.7v7h-1v-5.8z"/><path d="m61.4 54.5-1.4.7v-1l1.6-.9h.7v7h-1v-5.8z"/><path d="m64.3 58.2c-.1-.4-.1-.9-.1-1.4s0-1 .1-1.4.2-.8.4-1.1.4-.6.8-.8.7-.3 1.1-.3.8.1 1.1.3.6.4.8.8c.2.3.3.7.4 1.1s.1.9.1 1.4 0 1-.1 1.4-.2.8-.4 1.1-.4.6-.8.8c-.3.2-.7.3-1.1.3s-.8-.1-1.1-.3-.6-.4-.8-.8-.3-.7-.4-1.1zm2.2 1.2c.9 0 1.4-.9 1.4-2.6s-.5-2.6-1.4-2.6-1.4.9-1.4 2.6.5 2.6 1.4 2.6z"/><path d="m34.5 65.8c.1-.1.2-.3.4-.5l1-1.1h.6l-1.3 1.4 1.4 1.8h-.6l-1.1-1.4-.4.3v1.2h-.5v-4.6h.5v2.4z"/><path d="m41 67.5h-.5l-.9-2.9c0-.1-.1-.3-.1-.5s-.1-.3-.1-.3c0 .3-.1.5-.2.8l-.8 2.9h-.5l-1.1-4.3h.5l.7 2.6c.1.4.2.7.2 1 .1-.4.1-.7.2-1l.8-2.6h.5l.8 2.6c.1.3.2.6.2 1 0-.3.1-.6.2-1l.7-2.6h.5z"/><path d="m44.9 67.5v-2.1c0-.3-.1-.5-.2-.6s-.3-.2-.6-.2-.6.1-.7.3-.2.5-.2.9v1.7h-.5v-4.6h.5v1.4.4c.1-.2.2-.3.4-.4s.4-.1.6-.1c.4 0 .7.1.9.3s.3.5.3.9v2.1z"/><path d="m48 63.2-1.6 4.3h-.5l1.6-4.3z"/><path d="m52.7 67.5v-2.1c0-.3-.1-.4-.2-.6s-.3-.2-.5-.2c-.3 0-.5.1-.7.3s-.2.4-.2.8v1.8h-.5v-2.1c0-.3-.1-.4-.2-.6s-.3-.2-.5-.2c-.3 0-.5.1-.7.3s-.2.5-.2.9v1.7h-.5v-3.2h.5l.1.4c.1-.2.2-.3.4-.4s.4-.1.6-.1c.5 0 .8.2 1 .5.1-.2.2-.3.4-.4s.4-.1.6-.1c.4 0 .6.1.8.3s.3.5.3.9v2.1z"/><path d="m55.6 65.8h-1.8v-.3l.7-.7.4-.4s.1-.2.2-.3 0-.2 0-.3 0-.2-.1-.3-.2-.1-.3-.1-.2 0-.3.1-.2.1-.3.2l-.2-.3c.3-.2.5-.3.8-.3s.5.1.6.2.2.3.2.5 0 .3-.1.5-.3.4-.6.6l-.5.5h1.3z"/><path d="m57.9 63.2-1.6 4.3h-.5l1.6-4.3z"/><path d="m60.4 67.5v-.5c-.2.2-.3.3-.5.4s-.4.1-.6.1c-.3 0-.6-.1-.7-.2s-.3-.4-.3-.7c0-.6.5-1 1.6-1h.5v-.2c0-.3-.1-.4-.2-.6s-.3-.2-.5-.2c-.3 0-.6.1-.9.2l-.1-.4c.2-.1.3-.2.5-.2s.4-.1.6-.1c.4 0 .7.1.9.3s.3.4.3.8v2.2h-.6zm-1.1-.4c.3 0 .5-.1.7-.2s.3-.4.3-.7v-.3h-.5c-.4 0-.7.1-.8.2s-.3.3-.3.5.1.3.2.4.3.1.4.1z"/><path d="m64 67.5v-2.1c0-.3-.1-.5-.2-.6s-.3-.2-.6-.2-.6.1-.7.3-.2.5-.2.9v1.7h-.5v-3.2h.4l.1.4c.1-.2.2-.3.4-.4s.4-.1.6-.1c.4 0 .7.1.9.3s.3.5.3.9v2.1z"/><path d="m35.4 89.5-1.4.7v-1l1.6-.9h.7v7h-1v-5.8z"/><path d="m39.6 89.5-1.4.7v-1l1.6-.9h.7v7h-1v-5.8z"/><path d="m42.5 93.2c-.1-.4-.1-.9-.1-1.4s0-1 .1-1.4.2-.8.4-1.1.4-.6.8-.8.7-.3 1.1-.3.8.1 1.1.3.6.4.8.8c.2.3.3.7.4 1.1s.1.9.1 1.4 0 1-.1 1.4-.2.8-.4 1.1-.4.6-.8.8c-.3.2-.7.3-1.1.3s-.8-.1-1.1-.3-.6-.4-.8-.8-.3-.7-.4-1.1zm2.3 1.2c.9 0 1.4-.9 1.4-2.6s-.5-2.6-1.4-2.6-1.4.9-1.4 2.6.5 2.6 1.4 2.6z"/><path d="m54.7 95.3v-.4c-.4.4-.9.5-1.4.5-.4 0-.8-.1-1.2-.3s-.7-.5-.9-.9-.3-.8-.3-1.3.1-.9.3-1.3.5-.7.9-.9c.3-.2.7-.3 1.1-.3.6 0 1.1.2 1.5.5v-.4h.9v4.7h-.9zm0-1.5v-1.8c-.3-.4-.8-.7-1.3-.7-.4 0-.8.2-1.1.5s-.4.7-.4 1.1.1.8.4 1.1.7.5 1.1.5c.5 0 1-.3 1.3-.7zm-.5-4h-.7l-1-1.5h1z"/><path d="m60.5 89.5-1.4.7v-1l1.6-.9h.7v7h-1v-5.8z"/><path d="m67.4 94.7c-.5.4-1 .6-1.7.6s-1.2-.2-1.7-.6-.7-1-.7-1.6c0-.4.1-.8.3-1.1s.5-.6.8-.8c-.2-.1-.4-.3-.5-.6-.1-.2-.2-.5-.2-.7 0-.5.2-1 .6-1.3.4-.4.8-.5 1.4-.5s1 .2 1.4.5c.4.4.6.8.6 1.3 0 .3-.1.5-.2.7s-.3.4-.5.6c.3.2.6.4.8.8.2.3.3.7.3 1.1-.1.7-.3 1.2-.7 1.6zm-.8-2.5c-.3-.2-.6-.4-1-.4s-.7.1-1 .4-.4.5-.4.9.1.7.4.9.6.4 1 .4.7-.1 1-.4c.3-.2.4-.5.4-.9 0-.3-.1-.6-.4-.9zm-.3-2.8c-.2-.2-.4-.3-.7-.3s-.5.1-.7.3-.3.4-.3.6.1.5.3.6c.2.2.4.3.7.3s.5-.1.7-.3.3-.4.3-.6-.1-.4-.3-.6z"/><path d="m69.2 93.2c-.1-.4-.1-.9-.1-1.4s0-1 .1-1.4.2-.8.4-1.1.4-.6.8-.8.7-.3 1.1-.3.8.1 1.1.3.6.4.8.8c.2.3.3.7.4 1.1s.1.9.1 1.4 0 1-.1 1.4-.2.8-.4 1.1-.4.6-.8.8c-.3.2-.7.3-1.1.3s-.8-.1-1.1-.3-.6-.4-.8-.8-.3-.7-.4-1.1zm2.3 1.2c.9 0 1.4-.9 1.4-2.6s-.5-2.6-1.4-2.6-1.4.9-1.4 2.6.5 2.6 1.4 2.6z"/><path d="m35.1 100.9 1.6 1.5h-.7l-1.4-1.4v1.4h-.6v-4.3h.6v2.5l1.2-1.1h.8z"/><path d="m39.6 99.4-1.1 3.1h-.4l-1.3-4.2h.6l.9 3 1-3h.4l1 3 .9-3h.6l-1.3 4.2h-.4z"/><path d="m43.6 98.2v1.7c.2-.2.5-.3.8-.3.4 0 .8.2 1 .5.2.2.3.6.3 1v1.4h-.6v-1.4c0-.3-.1-.5-.2-.7s-.3-.3-.6-.3-.6.1-.8.4v1.9h-.5v-4.3h.6z"/><path d="m47.1 102.5h-.6l2-4.2h.5z"/><path d="m49.6 99.7h.6v.3c.1-.1.2-.2.3-.2.2-.1.3-.1.5-.1.4 0 .7.2 1 .5.3-.3.7-.5 1.1-.5s.8.2 1 .5c.2.2.3.5.3 1v1.4h-.6v-1.5c0-.2-.1-.4-.2-.6s-.3-.2-.5-.2c-.3 0-.6.1-.9.4v.5 1.4h-.6v-1.5c0-.2-.1-.4-.2-.6s-.3-.2-.5-.2c-.3 0-.6.1-.8.4v1.9h-.6v-2.9z"/><path d="m55.3 98.9-.4-.1c0-.2.1-.3.3-.4.1-.1.3-.2.5-.2s.4.1.5.2.2.3.2.5-.1.4-.3.6l-.5.5h.7v.4h-1.5v-.2l.8-.9c.1-.1.2-.3.2-.4s0-.1-.1-.2-.1-.1-.2-.1c0 0-.1.1-.2.3z"/><path d="m57.2 102.5h-.6l2-4.2h.6z"/><path d="m61.5 102.5v-.3c-.2.2-.5.3-.9.3-.3 0-.5-.1-.7-.2s-.4-.3-.5-.5-.2-.5-.2-.8.1-.5.2-.8c.1-.2.3-.4.5-.5s.4-.2.7-.2.6.1.9.3v-.3h.5v2.8h-.5zm0-.9v-1.1c-.2-.3-.5-.4-.8-.4s-.5.1-.7.3-.3.4-.3.7.1.5.3.7.4.3.7.3c.3-.1.6-.2.8-.5z"/><path d="m63.6 99.7v.3c.2-.2.5-.3.8-.3.4 0 .8.2 1 .5.2.2.3.6.3 1v1.4h-.6v-1.4c0-.3-.1-.5-.2-.7s-.3-.3-.6-.3-.6.1-.8.4v1.9h-.6v-2.8z"/><path d="m35.4 125.5-1.4.7v-1l1.6-.9h.7v7h-1v-5.8z"/><path d="m42.2 130.7c-.5.4-1 .6-1.7.6s-1.2-.2-1.7-.6-.7-1-.7-1.6c0-.4.1-.8.3-1.1s.5-.6.8-.8c-.2-.1-.4-.3-.5-.6-.1-.2-.2-.5-.2-.7 0-.5.2-1 .6-1.3.4-.4.8-.5 1.4-.5s1 .2 1.4.5c.4.4.6.8.6 1.3 0 .3-.1.5-.2.7s-.3.4-.5.6c.3.2.6.4.8.8.2.3.3.7.3 1.1-.1.7-.3 1.2-.7 1.6zm-.8-2.5c-.3-.2-.6-.4-1-.4s-.7.1-1 .4c-.3.2-.4.5-.4.9s.1.7.4.9.6.4 1 .4.7-.1 1-.4.4-.5.4-.9c0-.3-.1-.6-.4-.9zm-.3-2.8c-.2-.2-.4-.3-.7-.3s-.5.1-.7.3-.3.4-.3.6c0 .3.1.5.3.6.2.2.4.3.7.3s.5-.1.7-.3.3-.4.3-.6-.1-.4-.3-.6z"/><path d="m44 129.2c-.1-.4-.1-.9-.1-1.4s0-1 .1-1.4.2-.8.4-1.1.4-.6.8-.8.7-.3 1.1-.3.8.1 1.1.3.6.4.8.8c.2.3.3.7.4 1.1s.1.9.1 1.4 0 1-.1 1.4-.2.8-.4 1.1-.4.6-.8.8c-.3.2-.7.3-1.1.3s-.8-.1-1.1-.3-.6-.4-.8-.8c-.1-.3-.3-.7-.4-1.1zm2.3 1.2c.9 0 1.4-.9 1.4-2.7s-.5-2.6-1.4-2.6-1.4.9-1.4 2.6.5 2.7 1.4 2.7z"/><path d="m56.2 131.3v-.4c-.4.4-.9.5-1.4.5-.4 0-.8-.1-1.2-.3s-.7-.5-.9-.9-.3-.8-.3-1.3.1-.9.3-1.3.5-.7.9-.9c.3-.2.7-.3 1.1-.3.6 0 1.1.2 1.5.5v-.4h.9v4.7h-.9zm0-1.5v-1.8c-.3-.4-.8-.7-1.3-.7-.4 0-.8.2-1.1.5s-.4.7-.4 1.1.1.8.4 1.1.7.5 1.1.5c.5 0 1-.3 1.3-.7zm-.5-4h-.7l-1-1.5h1z"/><path d="m61.7 126-.9-.3c.1-.4.3-.7.6-1s.5-.4.8-.5c.2-.1.5-.1.7-.1.6 0 1.1.2 1.5.6s.6.9.6 1.5c0 .7-.3 1.4-.9 2.1l-1.8 2h2.7v1h-4.2v-.6l2.4-2.7c.3-.3.5-.6.6-.8s.2-.5.2-.8-.1-.6-.3-.8-.5-.3-.8-.3c-.5-.2-.9.1-1.2.7z"/><path d="m70.2 125.2h-2.5l-.2 1.5c.2-.1.5-.1.7-.1.7 0 1.2.2 1.7.7s.7 1 .7 1.7-.2 1.2-.7 1.7-1 .7-1.7.7c-.4 0-.8-.1-1.2-.3s-.6-.4-.9-.7l.8-.6c.3.4.8.6 1.3.6.4 0 .7-.1 1-.4s.4-.6.4-1-.1-.8-.4-1c-.3-.3-.6-.4-1-.4s-.8.1-1.1.4l-.7-.1.5-3.5h3.3z"/><path d="m71.8 129.2c-.1-.4-.1-.9-.1-1.4s0-1 .1-1.4.2-.8.4-1.1.4-.6.8-.8.7-.3 1.1-.3.8.1 1.1.3.6.4.8.8c.2.3.3.7.4 1.1s.1.9.1 1.4 0 1-.1 1.4-.2.8-.4 1.1-.4.6-.8.8c-.3.2-.7.3-1.1.3s-.8-.1-1.1-.3-.6-.4-.8-.8c-.2-.3-.3-.7-.4-1.1zm2.2 1.2c.9 0 1.4-.9 1.4-2.7s-.5-2.6-1.4-2.6-1.4.9-1.4 2.6.5 2.7 1.4 2.7z"/><path d="m35.1 136.9 1.6 1.5h-.7l-1.4-1.4v1.4h-.6v-4.3h.6v2.5l1.2-1.1h.8z"/><path d="m39.6 135.4-1.1 3.1h-.4l-1.3-4.2h.6l.9 3 1-3h.4l1 3 .9-3h.6l-1.3 4.2h-.4z"/><path d="m43.6 134.2v1.7c.2-.2.5-.3.8-.3.4 0 .8.2 1 .5.2.2.3.6.3 1v1.4h-.6v-1.4c0-.3-.1-.5-.2-.7s-.3-.3-.6-.3-.6.1-.8.4v1.9h-.5v-4.3h.6z"/><path d="m47.1 138.5h-.6l2-4.2h.5z"/><path d="m49.6 135.7h.6v.3c.1-.1.2-.2.3-.2.2-.1.3-.1.5-.1.4 0 .7.2 1 .5.3-.3.7-.5 1.1-.5s.8.2 1 .5c.2.2.3.5.3 1v1.4h-.6v-1.5c0-.2-.1-.4-.2-.6s-.3-.2-.5-.2c-.3 0-.6.1-.9.4v.5 1.4h-.6v-1.5c0-.2-.1-.4-.2-.6s-.3-.2-.5-.2c-.3 0-.6.1-.8.4v1.9h-.6v-2.9z"/><path d="m55.3 134.9-.4-.1c0-.2.1-.3.3-.4.1-.1.3-.2.5-.2s.4.1.5.2.2.3.2.5-.1.4-.3.6l-.5.5h.7v.4h-1.5v-.2l.8-.9c.1-.1.2-.3.2-.4s0-.1-.1-.2-.1-.1-.2-.1c0 0-.1.1-.2.3z"/><path d="m57.2 138.5h-.6l2-4.2h.6z"/><path d="m61.5 138.5v-.3c-.2.2-.5.3-.9.3-.3 0-.5-.1-.7-.2s-.4-.3-.5-.5-.2-.5-.2-.8.1-.5.2-.8c.1-.2.3-.4.5-.5s.4-.2.7-.2.6.1.9.3v-.3h.5v2.8h-.5zm0-.9v-1.1c-.2-.3-.5-.4-.8-.4s-.5.1-.7.3-.3.4-.3.7.1.5.3.7.4.3.7.3c.3-.1.6-.2.8-.5z"/><path d="m63.6 135.7v.3c.2-.2.5-.3.8-.3.4 0 .8.2 1 .5.2.2.3.6.3 1v1.4h-.6v-1.4c0-.3-.1-.5-.2-.7s-.3-.3-.6-.3-.6.1-.8.4v1.9h-.6v-2.8z"/><path d="m34.8 162-.9-.3c.1-.4.3-.7.6-1s.5-.4.8-.5c.2-.1.5-.1.7-.1.6 0 1.1.2 1.5.6s.6.9.6 1.5c0 .7-.3 1.4-.9 2.1l-1.8 2h2.6v1h-4.2v-.6l2.4-2.7c.3-.3.5-.6.6-.8s.2-.5.2-.8-.1-.6-.3-.8-.5-.3-.8-.3c-.5-.2-.9.1-1.1.7z"/><path d="m43.2 161.2h-2.5l-.2 1.5c.2-.1.5-.1.7-.1.7 0 1.2.2 1.7.7s.7 1 .7 1.7-.2 1.2-.7 1.7-1 .7-1.7.7c-.4 0-.8-.1-1.2-.3s-.6-.4-.9-.7l.8-.6c.3.4.8.6 1.3.6.4 0 .7-.1 1-.4s.4-.6.4-1-.1-.8-.4-1c-.3-.3-.6-.4-1-.4s-.8.1-1.1.4l-.7-.1.5-3.5h3.3z"/><path d="m44.8 165.2c-.1-.4-.1-.9-.1-1.4s0-1 .1-1.4.2-.8.4-1.1.4-.6.8-.8.7-.3 1.1-.3.8.1 1.1.3.6.4.8.8c.2.3.3.7.4 1.1s.1.9.1 1.4 0 1-.1 1.4-.2.8-.4 1.1-.4.6-.8.8c-.3.2-.7.3-1.1.3s-.8-.1-1.1-.3-.6-.4-.8-.8c-.2-.3-.3-.7-.4-1.1zm2.2 1.2c.9 0 1.4-.9 1.4-2.7s-.5-2.6-1.4-2.6-1.4.9-1.4 2.6.5 2.7 1.4 2.7z"/><path d="m57 167.3v-.4c-.4.4-.9.5-1.4.5-.4 0-.8-.1-1.2-.3s-.7-.5-.9-.9-.3-.8-.3-1.3.1-.9.3-1.3.5-.7.9-.9c.3-.2.7-.3 1.1-.3.6 0 1.1.2 1.5.5v-.4h.9v4.7h-.9zm-.1-1.5v-1.8c-.3-.4-.8-.7-1.3-.7-.4 0-.8.2-1.1.5s-.4.7-.4 1.1.1.8.4 1.1.7.5 1.1.5c.6 0 1-.3 1.3-.7zm-.5-4h-.7l-1-1.5h1z"/><path d="m61.7 166.2.8-.5c.1.2.3.4.5.5s.5.2.8.2c.4 0 .7-.1 1-.4s.4-.6.4-1-.1-.8-.4-1c-.3-.3-.6-.4-1.1-.4-.3 0-.5 0-.8.1v-.7l1.5-1.8h-2.4v-1h3.9v.7l-1.5 1.8c.5.1 1 .3 1.3.8.4.4.5.9.5 1.5 0 .7-.2 1.2-.7 1.7s-1 .7-1.7.7c-.5 0-.9-.1-1.3-.3-.3-.2-.6-.5-.8-.9z"/><path d="m67.1 166.2.8-.5c.1.2.3.4.5.5s.5.2.8.2c.4 0 .7-.1 1-.4s.4-.6.4-1-.1-.8-.4-1c-.3-.3-.6-.4-1.1-.4-.3 0-.5 0-.8.1v-.7l1.5-1.8h-2.4v-1h3.9v.7l-1.5 1.8c.5.1 1 .3 1.3.8.4.4.5.9.5 1.5 0 .7-.2 1.2-.7 1.7s-1 .7-1.7.7c-.5 0-.9-.1-1.3-.3-.3-.2-.6-.5-.8-.9z"/><path d="m72.9 165.2c-.1-.4-.1-.9-.1-1.4s0-1 .1-1.4.2-.8.4-1.1.4-.6.8-.8.7-.3 1.1-.3.8.1 1.1.3.6.4.8.8c.2.3.3.7.4 1.1s.1.9.1 1.4 0 1-.1 1.4-.2.8-.4 1.1-.4.6-.8.8c-.3.2-.7.3-1.1.3s-.8-.1-1.1-.3-.6-.4-.8-.8c-.1-.3-.3-.7-.4-1.1zm2.3 1.2c.9 0 1.4-.9 1.4-2.7s-.5-2.6-1.4-2.6-1.4.9-1.4 2.6.5 2.7 1.4 2.7z"/><path d="m35.1 172.9 1.6 1.5h-.7l-1.4-1.4v1.4h-.6v-4.3h.6v2.5l1.2-1.1h.8z"/><path d="m39.6 171.4-1.1 3.1h-.4l-1.3-4.2h.6l.9 3 1-3h.4l1 3 .9-3h.6l-1.3 4.2h-.4z"/><path d="m43.6 170.2v1.7c.2-.2.5-.3.8-.3.4 0 .8.2 1 .5.2.2.3.6.3 1v1.4h-.6v-1.4c0-.3-.1-.5-.2-.7s-.3-.3-.6-.3-.6.1-.8.4v1.9h-.5v-4.3h.6z"/><path d="m47.1 174.5h-.6l2-4.2h.5z"/><path d="m49.6 171.7h.6v.3c.1-.1.2-.2.3-.2.2-.1.3-.1.5-.1.4 0 .7.2 1 .5.3-.3.7-.5 1.1-.5s.8.2 1 .5c.2.2.3.5.3 1v1.4h-.6v-1.5c0-.2-.1-.4-.2-.6s-.3-.2-.5-.2c-.3 0-.6.1-.9.4v.5 1.4h-.6v-1.5c0-.2-.1-.4-.2-.6s-.3-.2-.5-.2c-.3 0-.6.1-.8.4v1.9h-.6v-2.9z"/><path d="m55.3 170.9-.4-.1c0-.2.1-.3.3-.4.1-.1.3-.2.5-.2s.4.1.5.2.2.3.2.5-.1.4-.3.6l-.5.5h.7v.4h-1.5v-.2l.8-.9c.1-.1.2-.3.2-.4s0-.1-.1-.2-.1-.1-.2-.1c0 0-.1.1-.2.3z"/><path d="m57.2 174.5h-.6l2-4.2h.6z"/><path d="m61.5 174.5v-.3c-.2.2-.5.3-.9.3-.3 0-.5-.1-.7-.2s-.4-.3-.5-.5-.2-.5-.2-.8.1-.5.2-.8c.1-.2.3-.4.5-.5s.4-.2.7-.2.6.1.9.3v-.3h.5v2.8h-.5zm0-.9v-1.1c-.2-.3-.5-.4-.8-.4s-.5.1-.7.3-.3.4-.3.7.1.5.3.7.4.3.7.3c.3-.1.6-.2.8-.5z"/><path d="m63.6 171.7v.3c.2-.2.5-.3.8-.3.4 0 .8.2 1 .5.2.2.3.6.3 1v1.4h-.6v-1.4c0-.3-.1-.5-.2-.7s-.3-.3-.6-.3-.6.1-.8.4v1.9h-.6v-2.8z"/><path d="m33.8 202.2.8-.5c.1.2.3.4.5.5s.5.2.8.2c.4 0 .7-.1 1-.4s.4-.6.4-1-.1-.8-.4-1c-.3-.3-.6-.4-1.1-.4-.3 0-.5 0-.8.1v-.7l1.5-1.8h-2.4v-1h3.9v.7l-1.5 1.8c.5.1 1 .3 1.3.8.4.4.5.9.5 1.5 0 .7-.2 1.2-.7 1.7s-1 .7-1.7.7c-.5 0-.9-.1-1.3-.3s-.6-.5-.8-.9z"/><path d="m39.1 202.2.8-.5c.1.2.3.4.5.5s.5.2.8.2c.4 0 .7-.1 1-.4s.4-.6.4-1-.1-.8-.4-1c-.3-.3-.6-.4-1.1-.4-.3 0-.5 0-.8.1v-.7l1.5-1.8h-2.4v-1h3.9v.7l-1.5 1.8c.5.1 1 .3 1.3.8.4.4.5.9.5 1.5 0 .7-.2 1.2-.7 1.7s-1 .7-1.7.7c-.5 0-.9-.1-1.3-.3-.3-.2-.5-.5-.8-.9z"/><path d="m45 201.2c-.1-.4-.1-.9-.1-1.4s0-1 .1-1.4.2-.8.4-1.1.4-.6.8-.8.7-.3 1.1-.3.8.1 1.1.3.6.4.8.8c.2.3.3.7.4 1.1s.1.9.1 1.4 0 1-.1 1.4-.2.8-.4 1.1-.4.6-.8.8c-.3.2-.7.3-1.1.3s-.8-.1-1.1-.3-.6-.4-.8-.8c-.2-.3-.3-.7-.4-1.1zm2.2 1.2c.9 0 1.4-.9 1.4-2.7s-.5-2.6-1.4-2.6-1.4.9-1.4 2.6.5 2.7 1.4 2.7z"/><path d="m57.2 203.3v-.4c-.4.4-.9.5-1.4.5-.4 0-.8-.1-1.2-.3s-.7-.5-.9-.9-.3-.8-.3-1.3.1-.9.3-1.3.5-.7.9-.9c.3-.2.7-.3 1.1-.3.6 0 1.1.2 1.5.5v-.4h.9v4.7h-.9zm-.1-1.5v-1.8c-.3-.4-.8-.7-1.3-.7-.4 0-.8.2-1.1.5s-.4.7-.4 1.1.1.8.4 1.1.7.5 1.1.5c.6 0 1-.3 1.3-.7zm-.5-4h-.6l-1-1.5h1z"/><path d="m61.8 201.6v-.6l3.6-4.7h.7v4.4h1.1v.9h-1.1v1.7h-1v-1.7zm1.4-1h1.9v-2.4z"/><path d="m68.5 198-.9-.3c.1-.4.3-.7.6-1s.5-.4.8-.5c.2-.1.5-.1.7-.1.6 0 1.1.2 1.5.6s.6.9.6 1.5c0 .7-.3 1.4-.9 2.1l-1.8 2h2.7v1h-4.2v-.6l2.4-2.7c.3-.3.5-.6.6-.8s.2-.5.2-.8-.1-.6-.3-.8-.5-.3-.8-.3c-.6-.2-1 .1-1.2.7z"/><path d="m73.1 201.2c-.1-.4-.1-.9-.1-1.4s0-1 .1-1.4.2-.8.4-1.1.4-.6.8-.8.7-.3 1.1-.3.8.1 1.1.3.6.4.8.8c.2.3.3.7.4 1.1s.1.9.1 1.4 0 1-.1 1.4-.2.8-.4 1.1-.4.6-.8.8c-.3.2-.7.3-1.1.3s-.8-.1-1.1-.3-.6-.4-.8-.8c-.1-.3-.3-.7-.4-1.1zm2.3 1.2c.9 0 1.4-.9 1.4-2.7s-.5-2.6-1.4-2.6-1.4.9-1.4 2.6.5 2.7 1.4 2.7z"/><path d="m35.1 208.9 1.6 1.5h-.7l-1.4-1.4v1.4h-.6v-4.3h.6v2.5l1.2-1.1h.8z"/><path d="m39.6 207.4-1.1 3.1h-.4l-1.3-4.2h.6l.9 3 1-3h.4l1 3 .9-3h.6l-1.3 4.2h-.4z"/><path d="m43.6 206.2v1.7c.2-.2.5-.3.8-.3.4 0 .8.2 1 .5.2.2.3.6.3 1v1.4h-.6v-1.4c0-.3-.1-.5-.2-.7s-.3-.3-.6-.3-.6.1-.8.4v1.9h-.5v-4.3h.6z"/><path d="m47.1 210.5h-.6l2-4.2h.5z"/><path d="m49.6 207.7h.6v.3c.1-.1.2-.2.3-.2.2-.1.3-.1.5-.1.4 0 .7.2 1 .5.3-.3.7-.5 1.1-.5s.8.2 1 .5c.2.2.3.5.3 1v1.4h-.6v-1.5c0-.2-.1-.4-.2-.6s-.3-.2-.5-.2c-.3 0-.6.1-.9.4v.5 1.4h-.6v-1.5c0-.2-.1-.4-.2-.6s-.3-.2-.5-.2c-.3 0-.6.1-.8.4v1.9h-.6v-2.9z"/><path d="m55.3 206.9-.4-.1c0-.2.1-.3.3-.4.1-.1.3-.2.5-.2s.4.1.5.2.2.3.2.5-.1.4-.3.6l-.5.5h.7v.4h-1.5v-.2l.8-.9c.1-.1.2-.3.2-.4s0-.1-.1-.2-.1-.1-.2-.1c0 0-.1.1-.2.3z"/><path d="m57.2 210.5h-.6l2-4.2h.6z"/><path d="m61.5 210.5v-.3c-.2.2-.5.3-.9.3-.3 0-.5-.1-.7-.2s-.4-.3-.5-.5-.2-.5-.2-.8.1-.5.2-.8c.1-.2.3-.4.5-.5s.4-.2.7-.2.6.1.9.3v-.3h.5v2.8h-.5zm0-.9v-1.1c-.2-.3-.5-.4-.8-.4s-.5.1-.7.3-.3.4-.3.7.1.5.3.7.4.3.7.3c.3-.1.6-.2.8-.5z"/><path d="m63.6 207.7v.3c.2-.2.5-.3.8-.3.4 0 .8.2 1 .5.2.2.3.6.3 1v1.4h-.6v-1.4c0-.3-.1-.5-.2-.7s-.3-.3-.6-.3-.6.1-.8.4v1.9h-.6v-2.8z"/><path d="m34 235.9 2.8-1.2-2.8-1.2v-1l4.4 1.9v.6l-4.4 1.9z"/><path d="m41.8 235.6v-.6l3.6-4.7h.7v4.4h1.1v.9h-1.1v1.7h-1v-1.7zm1.4-1h1.9v-2.4z"/><path d="m48.5 232-.9-.3c.1-.4.3-.7.6-1s.5-.4.8-.5c.2-.1.5-.1.7-.1.6 0 1.1.2 1.5.6s.6.9.6 1.5c0 .7-.3 1.4-.9 2.1l-1.8 2h2.7v1h-4.2v-.6l2.4-2.7c.3-.3.5-.6.6-.8s.2-.5.2-.8-.1-.6-.3-.8-.5-.3-.8-.3c-.6-.2-1 .1-1.2.7z"/><path d="m53.1 235.2c-.1-.4-.1-.9-.1-1.4s0-1 .1-1.4.2-.8.4-1.1.4-.6.8-.8.7-.3 1.1-.3.8.1 1.1.3.6.4.8.8c.2.3.3.7.4 1.1s.1.9.1 1.4 0 1-.1 1.4-.2.8-.4 1.1-.4.6-.8.8c-.3.2-.7.3-1.1.3s-.8-.1-1.1-.3-.6-.4-.8-.8c-.1-.3-.3-.7-.4-1.1zm2.3 1.2c.9 0 1.4-.9 1.4-2.7s-.5-2.6-1.4-2.6-1.4.9-1.4 2.6.5 2.7 1.4 2.7z"/><path d="m35.1 242.9 1.6 1.5h-.7l-1.4-1.4v1.4h-.6v-4.3h.6v2.5l1.2-1.1h.8z"/><path d="m39.6 241.4-1.1 3.1h-.4l-1.3-4.2h.6l.9 3 1-3h.4l1 3 .9-3h.6l-1.3 4.2h-.4z"/><path d="m43.6 240.2v1.7c.2-.2.5-.3.8-.3.4 0 .8.2 1 .5.2.2.3.6.3 1v1.4h-.6v-1.4c0-.3-.1-.5-.2-.7s-.3-.3-.6-.3-.6.1-.8.4v1.9h-.5v-4.3h.6z"/><path d="m47.1 244.5h-.6l2-4.2h.5z"/><path d="m49.6 241.7h.6v.3c.1-.1.2-.2.3-.2.2-.1.3-.1.5-.1.4 0 .7.2 1 .5.3-.3.7-.5 1.1-.5s.8.2 1 .5c.2.2.3.5.3 1v1.4h-.6v-1.5c0-.2-.1-.4-.2-.6s-.3-.2-.5-.2c-.3 0-.6.1-.9.4v.5 1.4h-.6v-1.5c0-.2-.1-.4-.2-.6s-.3-.2-.5-.2c-.3 0-.6.1-.8.4v1.9h-.6v-2.9z"/><path d="m55.3 240.9-.4-.1c0-.2.1-.3.3-.4.1-.1.3-.2.5-.2s.4.1.5.2.2.3.2.5-.1.4-.3.6l-.5.5h.7v.4h-1.5v-.2l.8-.9c.1-.1.2-.3.2-.4s0-.1-.1-.2-.1-.1-.2-.1c0 0-.1.1-.2.3z"/><path d="m57.2 244.5h-.6l2-4.2h.6z"/><path d="m61.5 244.5v-.3c-.2.2-.5.3-.9.3-.3 0-.5-.1-.7-.2s-.4-.3-.5-.5-.2-.5-.2-.8.1-.5.2-.8c.1-.2.3-.4.5-.5s.4-.2.7-.2.6.1.9.3v-.3h.5v2.8h-.5zm0-.9v-1.1c-.2-.3-.5-.4-.8-.4s-.5.1-.7.3-.3.4-.3.7.1.5.3.7.4.3.7.3c.3-.1.6-.2.8-.5z"/><path d="m63.6 241.7v.3c.2-.2.5-.3.8-.3.4 0 .8.2 1 .5.2.2.3.6.3 1v1.4h-.6v-1.4c0-.3-.1-.5-.2-.7s-.3-.3-.6-.3-.6.1-.8.4v1.9h-.6v-2.8z"/></g></svg>