<svg width="289" height="257" xmlns="http://www.w3.org/2000/svg">
  <g fill="none" fill-rule="evenodd">
    <g fill-rule="nonzero">
      <path fill="#449970" d="M113 0H54v31h59l11-15.5z"/>
      <path d="M60 23.5 65.8 7h5.1l5.8 16.5h-4.4l-3.2-10.6-.7-2.6h-.1l-.7 2.6-3.3 10.6H60Zm3.8-3.7v-2.9H73v2.9h-9.2Z" fill="#FFFFFF"/>
    </g>
    <g fill-rule="nonzero">
      <path stroke="#000000" fill="#6BAD5E" d="M138 35H54v45h84l11-22.5z"/>
      <path d="M60 66.5V50h8c2 0 3.5.4 4.5 1.2 1 .8 1.4 1.9 1.4 3.3 0 .9-.3 1.7-.8 2.4-.6.7-1.4 1.1-2.5 1.3 1.3.2 2.2.6 2.8 1.3.6.7.9 1.6.9 2.6 0 1.4-.5 2.5-1.5 3.3-1 .8-2.4 1.1-4.4 1.1H60Zm4.2-9.7h3.1c1.5 0 2.3-.6 2.3-1.8 0-1.2-.8-1.8-2.3-1.8h-3.1v3.6Zm0 6.7h3.5c.8 0 1.4-.2 1.8-.5.4-.3.6-.8.6-1.4 0-.6-.2-1-.6-1.3-.4-.3-1-.5-1.8-.5h-3.5v3.7Z" fill="#FFFFFF"/>
    </g>
    <path fill="#88BA7D" fill-rule="nonzero" d="M162.5 84.7h-109v31h109l11-15.5z"/>
    <path fill="#F3E54F" fill-rule="nonzero" d="M187.5 120.1h-134v31h134l11-15.5z"/>
    <path fill="#E8B641" fill-rule="nonzero" d="M217.5 155.4h-164v31h164l11-15.5z"/>
    <path fill="#DE8647" fill-rule="nonzero" d="M257.5 190.7h-204v31h204l11-15.5z"/>
    <path fill="#C6362C" fill-rule="nonzero" d="M277.5 226.1h-224v31h224l11-15.5z"/>
    <path d="M74.8 103.8c-.3 1.1-.8 2.1-1.5 2.8-.7.7-1.5 1.3-2.5 1.6-1 .3-2 .5-3.2.5-1.7 0-3.1-.3-4.3-1-1.2-.7-2.1-1.6-2.8-2.9-.7-1.3-1-2.8-1-4.6 0-1.8.3-3.3 1-4.6.6-1.3 1.6-2.2 2.8-2.9 1.2-.7 2.6-1 4.3-1 1.1 0 2.2.2 3.2.5s1.8.8 2.5 1.5 1.1 1.5 1.4 2.6l-3.8 1.5c-.2-1-.6-1.7-1.1-2.1-.5-.4-1.2-.6-2-.6s-1.5.2-2 .6c-.5.4-1 1-1.3 1.7-.3.7-.5 1.7-.5 2.8 0 1.1.1 2.1.4 2.8.3.8.7 1.3 1.3 1.7.6.4 1.3.6 2.1.6s1.5-.2 2-.7c.6-.4.9-1.1 1.1-2l3.9 1.2ZM67.2 127c2.6 0 4.6.7 5.9 2.2 1.3 1.5 2.1 3.5 2.1 6.1 0 2.6-.7 4.7-2.1 6.1-1.4 1.4-3.4 2.1-5.9 2.1h-7V127h7Zm-.4 13.3c1.4 0 2.4-.4 3.1-1.3.6-.8 1-2.1 1-3.7s-.3-2.9-1-3.7c-.7-.8-1.7-1.3-3.1-1.3h-2.3v10h2.3ZM60.2 179.5V163H73v3.3h-8.5v3.3h6.8v3.1h-6.8v3.4h8.9v3.3H60.2zM73 202.3h-8.5v3.5h6.8v3.3h-6.8v6.3h-4.3V199H73zM67 249.8c-1.5 0-2.8-.3-3.9-1s-2-1.6-2.7-2.9c-.6-1.3-1-2.8-1-4.6 0-1.8.3-3.3 1-4.6.7-1.3 1.6-2.2 2.9-2.9 1.3-.7 2.7-1 4.4-1 1.9 0 3.4.3 4.5 1s2 1.7 2.7 3.2l-4 1.6c-.2-.8-.6-1.5-1.1-1.8-.6-.4-1.2-.6-2.1-.6-.8 0-1.5.2-2.1.6-.6.4-1 1-1.3 1.7-.3.8-.5 1.7-.5 2.8 0 1.2.2 2.1.5 2.9.3.8.8 1.4 1.4 1.7.6.3 1.4.6 2.3.6.5 0 .9-.1 1.3-.2s.8-.3 1-.5c.3-.2.5-.5.7-.9.2-.3.2-.7.2-1.2v-.2h-3.8v-2.9H75v8.9h-2.9l-.3-3.9.7.6c-.3 1.1-1 2-1.9 2.6-1 .7-2.1 1-3.6 1Z" fill="#FFFFFF" fill-rule="nonzero"/>
    <path stroke="#979797" stroke-linecap="square" d="M42.5 192.5v65"/>
  </g>
</svg>