<svg enable-background="new 0 0 250 262" viewBox="0 0 250 262" xmlns="http://www.w3.org/2000/svg"><path d="m64 41.1h-56.5v-31h56.5c8.6 0 15.5 6.9 15.5 15.5 0 8.5-6.9 15.5-15.5 15.5z" fill="#afdaf5"/><path d="m87 76.1h-79.5v-31h79.5c8.6 0 15.5 6.9 15.5 15.5 0 8.5-6.9 15.5-15.5 15.5z" fill="#93b4d0"/><path d="m112 111.1h-104.5v-31h104.5c8.6 0 15.5 6.9 15.5 15.5 0 8.5-6.9 15.5-15.5 15.5z" fill="#7c92ae"/><path d="m137 146.1h-129.5v-31h129.5c8.6 0 15.5 6.9 15.5 15.5 0 8.5-6.9 15.5-15.5 15.5z" fill="#626f8c"/><path d="m167 181.1h-159.5v-31h159.5c8.6 0 15.5 6.9 15.5 15.5 0 8.5-6.9 15.5-15.5 15.5z" fill="#4e536f"/><path d="m207 216.1h-199.5v-31h199.5c8.6 0 15.5 6.9 15.5 15.5 0 8.5-6.9 15.5-15.5 15.5z" fill="#38364f"/><path d="m227 251.1h-219.5v-31h219.5c8.6 0 15.5 6.9 15.5 15.5 0 8.5-6.9 15.5-15.5 15.5z" fill="#261c33"/><g fill="#fff"><path d="m12.5 32.7 5.8-16.5h5.2l5.8 16.5h-4.4l-3.2-10.6-.7-2.6h-.1l-.7 2.6-3.3 10.6zm3.8-3.7v-2.9h9.2v2.9z"/><path d="m14.2 69v-16.5h8c2 0 3.5.4 4.5 1.2s1.5 1.9 1.5 3.3c0 .9-.3 1.7-.8 2.4s-1.4 1.1-2.5 1.3c1.3.2 2.2.6 2.8 1.3s.9 1.6.9 2.6c0 1.4-.5 2.5-1.5 3.3s-2.5 1.1-4.5 1.1zm4.2-9.7h3.1c1.5 0 2.3-.6 2.3-1.8s-.8-1.8-2.3-1.8h-3.1zm0 6.7h3.5c.8 0 1.4-.2 1.8-.5s.6-.8.6-1.4-.2-1-.6-1.3-1-.5-1.8-.5h-3.5z"/><path d="m28.9 98.8c-.3 1.1-.8 2.1-1.5 2.8s-1.5 1.3-2.5 1.6-2 .5-3.2.5c-1.7 0-3.1-.3-4.3-1s-2.2-1.6-2.8-2.9-1-2.8-1-4.6.3-3.3 1-4.6c.6-1.3 1.6-2.2 2.8-2.9s2.7-1 4.3-1c1.1 0 2.2.2 3.2.5s1.8.8 2.5 1.5 1.1 1.5 1.4 2.6l-3.8 1.5c-.2-1-.6-1.7-1.1-2.1s-1.2-.6-2-.6-1.5.2-2 .6c-.6.4-1 1-1.3 1.7s-.5 1.7-.5 2.8.1 2.1.4 2.8c.3.8.7 1.3 1.3 1.7s1.3.6 2.1.6 1.5-.2 2-.7c.6-.4.9-1.1 1.1-2z"/><path d="m21.2 122c2.6 0 4.6.7 5.9 2.2s2.1 3.5 2.1 6.1-.7 4.7-2.1 6.1-3.4 2.1-5.9 2.1h-7v-16.5zm-.4 13.3c1.4 0 2.4-.4 3.1-1.3.6-.8 1-2.1 1-3.7s-.3-2.9-1-3.7-1.7-1.3-3.1-1.3h-2.3v10z"/><path d="m14.2 173.5v-16.5h12.8v3.3h-8.6v3.3h6.8v3.1h-6.8v3.4h8.9v3.3h-13.1z"/><path d="m27.1 196.3h-8.5v3.5h6.8v3.3h-6.8v6.3h-4.3v-16.4h12.8z"/><path d="m21.1 243.8c-1.5 0-2.8-.3-3.9-1s-2-1.6-2.7-2.9c-.6-1.3-1-2.8-1-4.6s.3-3.3 1-4.6 1.6-2.2 2.9-2.9c1.2-.7 2.7-1 4.4-1 1.9 0 3.4.3 4.5 1s2 1.7 2.7 3.2l-4 1.6c-.2-.8-.6-1.5-1.1-1.8-.6-.4-1.2-.6-2.1-.6s-1.5.2-2.1.6-1 1-1.3 1.7c-.3.8-.5 1.7-.5 2.8 0 1.2.2 2.1.5 2.9s.8 1.4 1.4 1.7c.6.4 1.4.6 2.3.6.5 0 .9-.1 1.3-.2s.8-.3 1-.5c.3-.2.5-.5.7-.9.2-.3.2-.7.2-1.2v-.2h-3.8v-2.9h7.5v8.9h-2.9l-.3-3.9.7.6c-.3 1.1-1 2-1.9 2.6-.9.7-2.1 1-3.5 1z"/><path d="m35.6 22.9 2.8 1.2v1l-4.4-1.9v-.6l4.4-1.9v1z"/><path d="m45.9 18.5-1.5 2.4h.4c.6 0 1.2.2 1.6.7.5.5.7 1 .7 1.7s-.2 1.2-.7 1.7-1 .7-1.7.7-1.3-.2-1.7-.7c-.5-.5-.7-1-.7-1.7 0-.4.1-.7.2-1.1.1-.3.3-.7.7-1.1l1.7-2.5h1zm-2.3 3.6c-.2.4-.4.7-.4 1.1s.1.8.4 1c.3.3.6.4 1 .4s.8-.1 1-.4c.3-.3.4-.6.4-1s-.1-.7-.4-1-.6-.4-1-.4c-.4-.1-.8 0-1 .3z"/><path d="m35.2 31.1 1.6 1.5h-.8l-1.4-1.4v1.4h-.6v-4.3h.6v2.5l1.2-1.1h.8z"/><path d="m39.2 32.4c-.2.2-.5.3-.9.3-.3 0-.5-.1-.7-.2s-.4-.3-.5-.5-.2-.5-.2-.8.1-.5.2-.8c.1-.2.3-.4.5-.5s.4-.2.7-.2.6.1.9.3v-.3h.6v2.7c0 .4-.1.7-.2.9s-.3.4-.5.5-.5.2-.7.2c-.3 0-.6-.1-.9-.2-.2-.1-.4-.3-.5-.5l.4-.4c.3.3.6.5.9.5s.5-.1.7-.3c.1-.2.2-.4.2-.7zm0-.6v-1.1c-.2-.3-.5-.4-.8-.4s-.5.1-.7.3-.3.4-.3.7.1.5.3.7.4.3.7.3c.3-.1.6-.2.8-.5z"/><path d="m42.1 30.6c0-.6.2-1.1.6-1.5s.9-.6 1.5-.6c.3 0 .6.1.9.2s.5.3.7.5l-.4.4c-.1-.1-.3-.3-.5-.3-.2-.3-.4-.3-.7-.3-.4 0-.8.2-1.1.5s-.4.7-.4 1.1c0 .5.2.9.5 1.1.3.3.7.4 1.1.4.5 0 .9-.2 1.2-.6l.4.4c-.2.2-.4.4-.7.6-.3.1-.6.2-.9.2-.6 0-1.1-.2-1.6-.6-.4-.4-.6-.9-.6-1.5z"/><path d="m46.8 32.1c-.4-.4-.6-.9-.6-1.5s.2-1.1.6-1.5.9-.6 1.5-.6 1.1.2 1.5.6.6.9.6 1.5-.2 1.1-.6 1.5-.9.6-1.5.6-1.1-.2-1.5-.6zm0-1.5c0 .5.1.8.4 1.1s.6.5 1.1.5.8-.2 1.1-.5.4-.7.4-1.1c0-.5-.1-.8-.4-1.1s-.6-.5-1.1-.5-.8.2-1.1.5c-.3.2-.4.6-.4 1.1z"/><path d="m51.3 29.5-.5-.2c.1-.2.2-.4.3-.6s.3-.2.5-.3c.1 0 .3-.1.4-.1.4 0 .7.1.9.4.2.2.4.5.4.9s-.2.8-.5 1.2l-1.1 1.2h1.6v.6h-2.5v-.4l1.4-1.6c.2-.2.3-.4.4-.5s.1-.3.1-.5-.1-.4-.2-.5-.2-.1-.4-.1c-.4 0-.6.2-.8.5z"/><path d="m54.4 32.7h-.6l2-4.2h.6z"/><path d="m56.9 29.8h.6v.3c.1-.1.2-.2.3-.2.2-.1.3-.1.5-.1.4 0 .7.2 1 .5.3-.3.7-.5 1.1-.5s.8.2 1 .5c.2.2.3.5.3 1v1.4h-.7v-1.5c0-.2-.1-.4-.2-.6s-.3-.2-.5-.2c-.3 0-.6.1-.9.4v.5 1.4h-.4v-1.5c0-.2-.1-.4-.2-.6s-.3-.2-.5-.2c-.3 0-.6.1-.8.4v1.9h-.6z"/><path d="m62.7 29.1-.5-.1c0-.2.1-.3.3-.4.1-.1.3-.2.5-.2s.4.1.5.2.2.3.2.5-.1.4-.3.6l-.4.5h.7v.4h-1.5v-.2l.8-.9c.1-.1.2-.3.2-.4s0-.1-.1-.2-.1-.1-.2-.1-.2.1-.2.3z"/><path d="m64.5 32.7h-.5l2-4.2h.6z"/><path d="m68.8 32.7v-.3c-.2.2-.5.3-.9.3-.3 0-.5-.1-.7-.2s-.4-.3-.5-.5-.2-.5-.2-.8.1-.5.2-.8c.1-.2.3-.4.5-.5s.4-.2.7-.2.6.1.9.3v-.3h.6v2.8h-.6zm0-.9v-1.1c-.2-.3-.5-.4-.8-.4s-.5.1-.7.3-.3.4-.3.7.1.5.3.7.4.3.7.3c.3-.1.6-.2.8-.5z"/><path d="m70.9 29.8v.3c.2-.2.5-.3.8-.3.4 0 .8.2 1 .5.2.2.3.6.3 1v1.4h-.6v-1.4c0-.3-.1-.5-.2-.7s-.3-.3-.6-.3-.6.1-.8.4v1.9h-.6v-2.8z"/><path d="m37.8 54.3-1.5 2.4h.4c.6 0 1.2.2 1.6.7.5.5.7 1 .7 1.7s-.2 1.2-.7 1.7-1 .7-1.7.7-1.3-.2-1.7-.7-.7-1-.7-1.7c0-.4.1-.7.2-1.1.1-.3.3-.7.7-1.1l1.7-2.5h1zm-2.4 3.6c-.2.4-.3.7-.3 1.1s.1.8.4 1c.3.3.6.4 1 .4s.8-.1 1-.4c.3-.3.4-.6.4-1s-.1-.7-.4-1-.6-.4-1-.4c-.5-.1-.8 0-1.1.3z"/><path d="m46.4 61.3v-.4c-.4.4-.9.5-1.4.5-.4 0-.8-.1-1.2-.3s-.7-.5-.9-.9-.3-.8-.3-1.3.1-.9.3-1.3.5-.7.9-.9c.3-.2.7-.3 1.1-.3.6 0 1.1.2 1.5.5v-.4h.9v4.7h-.9zm-.1-1.5v-1.8c-.3-.4-.8-.7-1.3-.7-.4 0-.8.2-1.1.5s-.4.7-.4 1.1.1.8.4 1.1.7.5 1.1.5c.6 0 1-.3 1.3-.7zm-.5-4h-.7l-1-1.5h1z"/><path d="m52.2 55.5-1.3.7v-1l1.6-.9h.7v7h-1z"/><path d="m56.5 55.5-1.4.7v-1l1.7-.9h.7v7h-1z"/><path d="m35.2 66.9 1.6 1.5h-.8l-1.4-1.4v1.4h-.6v-4.3h.6v2.5l1.2-1.1h.8z"/><path d="m39.2 68.2c-.2.2-.5.3-.9.3-.3 0-.5-.1-.7-.2s-.4-.3-.5-.5-.2-.5-.2-.8.1-.5.2-.8c.1-.2.3-.4.5-.5s.4-.2.7-.2.6.1.9.3v-.3h.6v2.7c0 .4-.1.7-.2.9s-.3.4-.5.5-.5.2-.7.2c-.3 0-.6-.1-.9-.2-.2-.1-.4-.3-.5-.5l.4-.4c.3.3.6.5.9.5s.5-.1.7-.3c.1-.2.2-.4.2-.7zm0-.6v-1.1c-.2-.3-.5-.4-.8-.4s-.5.1-.7.3-.3.4-.3.7.1.5.3.7.4.3.7.3c.3-.1.6-.2.8-.5z"/><path d="m42.1 66.4c0-.6.2-1.1.6-1.5s.9-.6 1.5-.6c.3 0 .6.1.9.2s.5.3.7.5l-.4.4c-.1-.1-.3-.3-.5-.3-.2-.1-.4-.1-.6-.1-.4 0-.8.2-1.1.5s-.4.7-.4 1.1c0 .5.2.9.5 1.1.3.3.7.4 1.1.4.5 0 .9-.2 1.2-.6l.4.4c-.2.2-.4.4-.7.6-.3.1-.6.2-.9.2-.6 0-1.1-.2-1.6-.6-.5-.6-.7-1.1-.7-1.7z"/><path d="m46.8 67.9c-.4-.4-.6-.9-.6-1.5s.2-1.1.6-1.5.9-.6 1.5-.6 1.1.2 1.5.6.6.9.6 1.5-.2 1.1-.6 1.5-.9.6-1.5.6-1.1-.2-1.5-.6zm0-1.5c0 .5.1.8.4 1.1s.6.5 1.1.5.8-.2 1.1-.5.4-.7.4-1.1c0-.5-.1-.8-.4-1.1s-.6-.5-1.1-.5-.8.2-1.1.5c-.3.2-.4.6-.4 1.1z"/><path d="m51.3 65.3-.5-.2.3-.6s.3-.2.5-.3c.1 0 .3-.1.4-.1.4 0 .7.1.9.4.2.2.4.5.4.9s-.2.8-.5 1.2l-1.1 1.2h1.6v.6h-2.5v-.4l1.4-1.6c.2-.2.3-.4.4-.5s.1-.3.1-.5-.1-.4-.2-.5-.3-.2-.5-.2c-.3.1-.5.3-.7.6z"/><path d="m54.4 68.5h-.6l2-4.2h.6z"/><path d="m56.9 65.7h.6v.3c.1-.1.2-.2.3-.2.2-.1.3-.1.5-.1.4 0 .7.2 1 .5.3-.3.7-.5 1.1-.5s.8.2 1 .5c.2.2.3.5.3 1v1.4h-.7v-1.5c0-.2-.1-.4-.2-.6s-.3-.2-.5-.2c-.3 0-.6.1-.9.4v.5 1.4h-.4v-1.5c0-.2-.1-.4-.2-.6s-.3-.2-.5-.2c-.3 0-.6.1-.8.4v1.9h-.6z"/><path d="m62.7 64.9-.4-.1c0-.2.1-.3.3-.4.1-.1.3-.2.5-.2s.4.1.5.2.2.3.2.5-.1.4-.3.6l-.5.5h.7v.4h-1.5v-.2l.8-.9c.1-.1.2-.3.2-.4s0-.1-.1-.2-.1-.1-.2-.1-.2.1-.2.3z"/><path d="m64.5 68.5h-.5l2-4.2h.6z"/><path d="m68.8 68.5v-.3c-.2.2-.5.3-.9.3-.3 0-.5-.1-.7-.2s-.4-.3-.5-.5-.2-.5-.2-.8.1-.5.2-.8c.1-.2.3-.4.5-.5s.4-.2.7-.2.6.1.9.3v-.3h.6v2.8h-.6zm0-.9v-1.1c-.2-.3-.5-.4-.8-.4s-.5.1-.7.3-.3.4-.3.7.1.5.3.7.4.3.7.3c.3-.1.6-.2.8-.5z"/><path d="m70.9 65.7v.3c.2-.2.5-.3.8-.3.4 0 .8.2 1 .5.2.2.3.6.3 1v1.4h-.6v-1.4c0-.3-.1-.5-.2-.7s-.3-.3-.6-.3-.6.1-.8.4v1.9h-.6v-2.8z"/><path d="m35.4 89.5-1.4.7v-1l1.7-.9h.7v7h-1z"/><path d="m39.7 89.5-1.3.7v-1l1.6-.9h.7v7h-1z"/><path d="m48.9 95.3v-.4c-.4.4-.9.5-1.4.5-.4 0-.8-.1-1.2-.3s-.7-.5-.9-.9-.3-.8-.3-1.3.1-.9.3-1.3.5-.7.9-.9c.3-.2.7-.3 1.1-.3.6 0 1.1.2 1.5.5v-.4h.9v4.7h-.9zm-.1-1.5v-1.8c-.3-.4-.8-.7-1.3-.7-.4 0-.8.2-1.1.5s-.4.7-.4 1.1.1.8.4 1.1.7.5 1.1.5c.6 0 1-.3 1.3-.7zm-.5-4h-.7l-1-1.5h1z"/><path d="m53.6 94.2.8-.5c.1.2.3.4.5.5s.5.2.8.2c.4 0 .7-.1 1-.4s.4-.6.4-1-.1-.8-.4-1c-.3-.3-.6-.4-1.1-.4-.3 0-.5 0-.8.1v-.7l1.5-1.8h-2.4v-1h3.9v.6l-1.5 1.8c.5.1 1 .3 1.3.8s.5.9.5 1.5c0 .7-.2 1.2-.7 1.7s-1 .7-1.7.7c-.5 0-.9-.1-1.3-.3-.3-.1-.6-.4-.8-.8z"/><path d="m59.4 93.2c-.1-.4-.1-.9-.1-1.4s0-1 .1-1.4.2-.8.4-1.1.4-.6.8-.8.7-.3 1.1-.3.8.1 1.1.3.6.4.8.8c.2.3.3.7.4 1.1s.1.9.1 1.4 0 1-.1 1.4-.2.8-.4 1.1-.4.6-.8.8c-.3.2-.7.3-1.1.3s-.8-.1-1.1-.3-.6-.4-.8-.8-.3-.7-.4-1.1zm2.3 1.2c.9 0 1.4-.9 1.4-2.6s-.5-2.6-1.4-2.6-1.4.9-1.4 2.6.4 2.6 1.4 2.6z"/><path d="m35.2 100.9 1.6 1.5h-.8l-1.4-1.4v1.4h-.6v-4.3h.6v2.5l1.2-1.1h.8z"/><path d="m39.2 102.2c-.2.2-.5.3-.9.3-.3 0-.5-.1-.7-.2s-.4-.3-.5-.5-.2-.5-.2-.8.1-.5.2-.8c.1-.2.3-.4.5-.5s.4-.2.7-.2.6.1.9.3v-.3h.6v2.7c0 .4-.1.7-.2.9s-.3.4-.5.5-.5.2-.7.2c-.3 0-.6-.1-.9-.2-.2-.1-.4-.3-.5-.5l.4-.4c.3.3.6.5.9.5s.5-.1.7-.3c.1-.2.2-.4.2-.7zm0-.6v-1.1c-.2-.3-.5-.4-.8-.4s-.5.1-.7.3-.3.4-.3.7.1.5.3.7.4.3.7.3c.3-.1.6-.2.8-.5z"/><path d="m42.1 100.4c0-.6.2-1.1.6-1.5s.9-.6 1.5-.6c.3 0 .6.1.9.2s.5.3.7.5l-.4.4c-.1-.1-.3-.3-.5-.3-.2-.1-.4-.1-.6-.1-.4 0-.8.2-1.1.5s-.4.7-.4 1.1c0 .5.2.8.5 1.1s.7.4 1.1.4c.5 0 .9-.2 1.2-.6l.4.4c-.2.2-.4.4-.7.6-.3.1-.6.2-.9.2-.6 0-1.1-.2-1.6-.6-.5-.6-.7-1.1-.7-1.7z"/><path d="m46.8 101.9c-.4-.4-.6-.9-.6-1.5s.2-1.1.6-1.5.9-.6 1.5-.6 1.1.2 1.5.6.6.9.6 1.5-.2 1.1-.6 1.5-.9.6-1.5.6-1.1-.2-1.5-.6zm0-1.5c0 .5.1.8.4 1.1s.6.5 1.1.5.8-.2 1.1-.5.4-.7.4-1.1c0-.5-.1-.8-.4-1.1s-.6-.5-1.1-.5-.8.2-1.1.5c-.3.2-.4.6-.4 1.1z"/><path d="m51.3 99.3-.5-.2.3-.6c.2-.2.3-.2.5-.3.1 0 .3-.1.4-.1.4 0 .7.1.9.4s.4.5.4.9-.2.8-.5 1.2l-1.1 1.2h1.6v.6h-2.5v-.4l1.4-1.6c.2-.2.3-.4.4-.5s.1-.3.1-.5-.1-.4-.2-.5-.3-.2-.5-.2c-.3.1-.5.3-.7.6z"/><path d="m54.4 102.5h-.6l2-4.2h.6z"/><path d="m56.9 99.7h.6v.3c.1-.1.2-.2.3-.2.2-.1.3-.1.5-.1.4 0 .7.2 1 .5.3-.3.7-.5 1.1-.5s.8.2 1 .5c.2.2.3.5.3 1v1.4h-.7v-1.5c0-.2-.1-.4-.2-.6s-.3-.2-.5-.2c-.3 0-.6.1-.9.4v.5 1.4h-.4v-1.5c0-.2-.1-.4-.2-.6s-.3-.2-.5-.2c-.3 0-.6.1-.8.4v1.9h-.6z"/><path d="m62.7 98.9-.4-.1c0-.2.1-.3.3-.4.1-.1.3-.2.5-.2s.4.1.5.2.2.3.2.5-.1.4-.3.6l-.5.5h.7v.4h-1.5v-.2l.8-.9c.1-.1.2-.3.2-.4s0-.1-.1-.2-.1-.1-.2-.1-.2.1-.2.3z"/><path d="m64.5 102.5h-.5l2-4.2h.6z"/><path d="m68.8 102.5v-.3c-.2.2-.5.3-.9.3-.3 0-.5-.1-.7-.2s-.4-.3-.5-.5-.2-.5-.2-.8.1-.5.2-.8c.1-.2.3-.4.5-.5s.4-.2.7-.2.6.1.9.3v-.3h.6v2.8h-.6zm0-.9v-1.1c-.2-.3-.5-.4-.8-.4s-.5.1-.7.3-.3.4-.3.7.1.5.3.7.4.3.7.3c.3-.1.6-.2.8-.5z"/><path d="m70.9 99.7v.3c.2-.2.5-.3.8-.3.4 0 .8.2 1 .5.2.2.3.6.3 1v1.4h-.6v-1.4c0-.3-.1-.5-.2-.7s-.3-.3-.6-.3-.6.1-.8.4v1.9h-.6v-2.8z"/><path d="m33.8 130.2.8-.5c.1.2.3.4.5.5s.5.2.8.2c.4 0 .7-.1 1-.4s.4-.6.4-1-.1-.8-.4-1-.6-.4-1.1-.4c-.3 0-.5 0-.8.1v-.7l1.5-1.8h-2.4v-1h3.9v.7l-1.5 1.8c.5.1 1 .3 1.3.8.4.4.5.9.5 1.5 0 .7-.2 1.2-.7 1.7s-1 .7-1.7.7c-.5 0-.9-.1-1.3-.3-.3-.2-.6-.5-.8-.9z"/><path d="m39.6 129.2c-.1-.4-.1-.9-.1-1.4s0-1 .1-1.4.2-.8.4-1.1.4-.6.8-.8.7-.3 1.1-.3.8.1 1.1.3.6.4.8.8c.2.3.3.7.4 1.1s.1.9.1 1.4 0 1-.1 1.4-.2.8-.4 1.1-.4.6-.8.8c-.3.2-.7.3-1.1.3s-.8-.1-1.1-.3-.6-.4-.8-.8c-.2-.3-.3-.7-.4-1.1zm2.3 1.2c.9 0 1.4-.9 1.4-2.7s-.5-2.6-1.4-2.6-1.4.9-1.4 2.6.4 2.7 1.4 2.7z"/><path d="m51.8 131.3v-.4c-.4.4-.9.5-1.5.5-.4 0-.8-.1-1.2-.3s-.7-.5-.9-.9-.3-.8-.3-1.3.1-.9.3-1.3.5-.7.9-.9c.3-.2.7-.3 1.2-.3.6 0 1.1.2 1.5.5v-.4h.9v4.7h-.9zm0-1.5v-1.8c-.3-.4-.8-.7-1.3-.7-.4 0-.8.2-1.1.5s-.4.7-.4 1.1.1.8.4 1.1.7.5 1.1.5c.5 0 .9-.3 1.3-.7zm-.6-4h-.7l-1-1.5h1z"/><path d="m60.7 125.2h-2.5l-.2 1.5c.2-.1.5-.1.7-.1.7 0 1.2.2 1.7.7s.7 1 .7 1.7-.2 1.2-.7 1.7-1 .7-1.7.7c-.4 0-.8-.1-1.2-.3s-.6-.4-.9-.7l.8-.6c.3.4.8.6 1.3.6.4 0 .7-.1 1-.4s.4-.6.4-1-.1-.8-.4-1c-.3-.3-.6-.4-1-.4s-.8.1-1.1.4l-.7-.1.5-3.5h3.3z"/><path d="m62.4 129.2c-.1-.4-.1-.9-.1-1.4s0-1 .1-1.4.2-.8.4-1.1.4-.6.8-.8c.3-.2.7-.3 1.1-.3s.8.1 1.1.3.6.4.8.8c.2.3.3.7.4 1.1s.1.9.1 1.4 0 1-.1 1.4-.2.8-.4 1.1-.4.6-.8.8-.7.3-1.1.3-.8-.1-1.1-.3-.6-.4-.8-.8c-.2-.3-.4-.7-.4-1.1zm2.2 1.2c.9 0 1.4-.9 1.4-2.7s-.5-2.6-1.4-2.6-1.4.9-1.4 2.6.5 2.7 1.4 2.7z"/><path d="m35.2 136.9 1.6 1.5h-.8l-1.4-1.4v1.4h-.6v-4.3h.6v2.5l1.2-1.1h.8z"/><path d="m39.2 138.2c-.2.2-.5.3-.9.3-.3 0-.5-.1-.7-.2s-.4-.3-.5-.5-.2-.5-.2-.8.1-.5.2-.8c.1-.2.3-.4.5-.5s.4-.2.7-.2.6.1.9.3v-.3h.6v2.7c0 .4-.1.7-.2.9s-.3.4-.5.5-.5.2-.7.2c-.3 0-.6-.1-.9-.2-.2-.1-.4-.3-.5-.5l.4-.4c.3.3.6.5.9.5s.5-.1.7-.3c.1-.2.2-.4.2-.7zm0-.6v-1.1c-.2-.3-.5-.4-.8-.4s-.5.1-.7.3-.3.4-.3.7.1.5.3.7.4.3.7.3c.3-.1.6-.2.8-.5z"/><path d="m42.1 136.4c0-.6.2-1.1.6-1.5s.9-.6 1.5-.6c.3 0 .6.1.9.2s.5.3.7.5l-.4.4c-.1-.1-.3-.3-.5-.3-.2-.1-.4-.1-.6-.1-.4 0-.8.2-1.1.5s-.4.7-.4 1.1c0 .5.2.8.5 1.1s.7.4 1.1.4c.5 0 .9-.2 1.2-.6l.4.4c-.2.2-.4.4-.7.6-.3.1-.6.2-.9.2-.6 0-1.1-.2-1.6-.6-.5-.6-.7-1.1-.7-1.7z"/><path d="m46.8 137.9c-.4-.4-.6-.9-.6-1.5s.2-1.1.6-1.5.9-.6 1.5-.6 1.1.2 1.5.6.6.9.6 1.5-.2 1.1-.6 1.5-.9.6-1.5.6-1.1-.2-1.5-.6zm0-1.5c0 .5.1.8.4 1.1s.6.5 1.1.5.8-.2 1.1-.5.4-.7.4-1.1c0-.5-.1-.8-.4-1.1s-.6-.5-1.1-.5-.8.2-1.1.5c-.3.2-.4.6-.4 1.1z"/><path d="m51.3 135.3-.5-.2.3-.6c.2-.2.3-.2.5-.3.1 0 .3-.1.4-.1.4 0 .7.1.9.4s.4.5.4.9-.2.8-.5 1.2l-1.1 1.2h1.6v.6h-2.5v-.4l1.4-1.6c.2-.2.3-.4.4-.5s.1-.3.1-.5-.1-.4-.2-.5-.3-.2-.5-.2c-.3.1-.5.3-.7.6z"/><path d="m54.4 138.5h-.6l2-4.2h.6z"/><path d="m56.9 135.7h.6v.3c.1-.1.2-.2.3-.2.2-.1.3-.1.5-.1.4 0 .7.2 1 .5.3-.3.7-.5 1.1-.5s.8.2 1 .5c.2.2.3.5.3 1v1.4h-.7v-1.5c0-.2-.1-.4-.2-.6s-.3-.2-.5-.2c-.3 0-.6.1-.9.4v.5 1.4h-.4v-1.5c0-.2-.1-.4-.2-.6s-.3-.2-.5-.2c-.3 0-.6.1-.8.4v1.9h-.6z"/><path d="m62.7 134.9-.4-.1c0-.2.1-.3.3-.4.1-.1.3-.2.5-.2s.4.1.5.2.2.3.2.5-.1.4-.3.6l-.5.5h.7v.4h-1.5v-.2l.8-.9c.1-.1.2-.3.2-.4s0-.1-.1-.2-.1-.1-.2-.1-.2.1-.2.3z"/><path d="m64.5 138.5h-.5l2-4.2h.6z"/><path d="m68.8 138.5v-.3c-.2.2-.5.3-.9.3-.3 0-.5-.1-.7-.2s-.4-.3-.5-.5-.2-.5-.2-.8.1-.5.2-.8c.1-.2.3-.4.5-.5s.4-.2.7-.2.6.1.9.3v-.3h.6v2.8h-.6zm0-.9v-1.1c-.2-.3-.5-.4-.8-.4s-.5.1-.7.3-.3.4-.3.7.1.5.3.7.4.3.7.3c.3-.1.6-.2.8-.5z"/><path d="m70.9 135.7v.3c.2-.2.5-.3.8-.3.4 0 .8.2 1 .5.2.2.3.6.3 1v1.4h-.6v-1.4c0-.3-.1-.5-.2-.7s-.3-.3-.6-.3-.6.1-.8.4v1.9h-.6v-2.8z"/><path d="m38 160.2h-2.5l-.2 1.5c.2-.1.5-.1.7-.1.7 0 1.2.2 1.7.7s.7 1 .7 1.7-.2 1.2-.7 1.7-1 .7-1.7.7c-.4 0-.8-.1-1.2-.3s-.6-.4-.9-.7l.8-.6c.3.4.8.6 1.3.6.4 0 .7-.1 1-.4s.4-.6.4-1-.1-.8-.4-1c-.3-.3-.6-.4-1-.4s-.8.1-1.1.4l-.7-.1.5-3.5h3.3z"/><path d="m39.6 164.2c-.1-.4-.1-.9-.1-1.4s0-1 .1-1.4.2-.8.4-1.1.4-.6.8-.8.7-.3 1.1-.3.8.1 1.1.3.6.4.8.8c.2.3.3.7.4 1.1s.1.9.1 1.4 0 1-.1 1.4-.2.8-.4 1.1-.4.6-.8.8c-.3.2-.7.3-1.1.3s-.8-.1-1.1-.3-.6-.4-.8-.8c-.2-.3-.3-.7-.4-1.1zm2.3 1.2c.9 0 1.4-.9 1.4-2.7s-.5-2.6-1.4-2.6-1.4.9-1.4 2.6.4 2.7 1.4 2.7z"/><path d="m51.8 166.3v-.4c-.4.4-.9.5-1.5.5-.4 0-.8-.1-1.2-.3s-.7-.5-.9-.9-.3-.8-.3-1.3.1-.9.3-1.3.5-.7.9-.9c.3-.2.7-.3 1.2-.3.6 0 1.1.2 1.5.5v-.4h.9v4.7h-.9zm0-1.5v-1.8c-.3-.4-.8-.7-1.3-.7-.4 0-.8.2-1.1.5s-.4.7-.4 1.1.1.8.4 1.1.7.5 1.1.5c.5 0 .9-.3 1.3-.7zm-.6-4h-.7l-1-1.5h1z"/><path d="m58 166.3h-1.1l3-6h-3.2v-1h4.4v.7z"/><path d="m61.9 164.2c-.1-.4-.1-.9-.1-1.4s0-1 .1-1.4.2-.8.4-1.1.4-.6.8-.8c.3-.2.7-.3 1.1-.3s.8.1 1.1.3.6.4.8.8c.2.3.3.7.4 1.1s.1.9.1 1.4 0 1-.1 1.4-.2.8-.4 1.1-.4.6-.8.8-.7.3-1.1.3-.8-.1-1.1-.3-.6-.4-.8-.8c-.2-.3-.4-.7-.4-1.1zm2.2 1.2c.9 0 1.4-.9 1.4-2.7s-.5-2.6-1.4-2.6-1.4.9-1.4 2.6.5 2.7 1.4 2.7z"/><path d="m35.2 171.9 1.6 1.5h-.8l-1.4-1.4v1.4h-.6v-4.3h.6v2.5l1.2-1.1h.8z"/><path d="m39.2 173.2c-.2.2-.5.3-.9.3-.3 0-.5-.1-.7-.2s-.4-.3-.5-.5-.2-.5-.2-.8.1-.5.2-.8c.1-.2.3-.4.5-.5s.4-.2.7-.2.6.1.9.3v-.3h.6v2.7c0 .4-.1.7-.2.9s-.3.4-.5.5-.5.2-.7.2c-.3 0-.6-.1-.9-.2-.2-.1-.4-.3-.5-.5l.4-.4c.3.3.6.5.9.5s.5-.1.7-.3c.1-.2.2-.4.2-.7zm0-.6v-1.1c-.2-.3-.5-.4-.8-.4s-.5.1-.7.3-.3.4-.3.7.1.5.3.7.4.3.7.3c.3-.1.6-.2.8-.5z"/><path d="m42.1 171.4c0-.6.2-1.1.6-1.5s.9-.6 1.5-.6c.3 0 .6.1.9.2s.5.3.7.5l-.4.4c-.1-.1-.3-.3-.5-.3-.2-.1-.4-.1-.6-.1-.4 0-.8.2-1.1.5s-.4.7-.4 1.1c0 .5.2.8.5 1.1s.7.4 1.1.4c.5 0 .9-.2 1.2-.6l.4.4c-.2.2-.4.4-.7.6-.3.1-.6.2-.9.2-.6 0-1.1-.2-1.6-.6-.5-.6-.7-1.1-.7-1.7z"/><path d="m46.8 172.9c-.4-.4-.6-.9-.6-1.5s.2-1.1.6-1.5.9-.6 1.5-.6 1.1.2 1.5.6.6.9.6 1.5-.2 1.1-.6 1.5-.9.6-1.5.6-1.1-.2-1.5-.6zm0-1.5c0 .5.1.8.4 1.1s.6.5 1.1.5.8-.2 1.1-.5.4-.7.4-1.1c0-.5-.1-.8-.4-1.1s-.6-.5-1.1-.5-.8.2-1.1.5c-.3.2-.4.6-.4 1.1z"/><path d="m51.3 170.3-.5-.2c.1-.2.2-.4.3-.6.2-.2.3-.2.5-.3.1 0 .3-.1.4-.1.4 0 .7.1.9.4s.4.5.4.9-.2.8-.5 1.2l-1.1 1.2h1.6v.6h-2.5v-.4l1.4-1.6c.2-.2.3-.4.4-.5s.1-.3.1-.5-.1-.4-.2-.5-.3-.2-.5-.2c-.3.1-.5.3-.7.6z"/><path d="m54.4 173.5h-.6l2-4.2h.6z"/><path d="m56.9 170.7h.6v.3c.1-.1.2-.2.3-.2.2-.1.3-.1.5-.1.4 0 .7.2 1 .5.3-.3.7-.5 1.1-.5s.8.2 1 .5c.2.2.3.5.3 1v1.4h-.7v-1.5c0-.2-.1-.4-.2-.6s-.3-.2-.5-.2c-.3 0-.6.1-.9.4v.5 1.4h-.4v-1.5c0-.2-.1-.4-.2-.6s-.3-.2-.5-.2c-.3 0-.6.1-.8.4v1.9h-.6z"/><path d="m62.7 169.9-.4-.1c0-.2.1-.3.3-.4.1-.1.3-.2.5-.2s.4.1.5.2.2.3.2.5-.1.4-.3.6l-.5.5h.7v.4h-1.5v-.2l.8-.9c.1-.1.2-.3.2-.4s0-.1-.1-.2-.1-.1-.2-.1-.2.1-.2.3z"/><path d="m64.5 173.5h-.5l2-4.2h.6z"/><path d="m68.8 173.5v-.3c-.2.2-.5.3-.9.3-.3 0-.5-.1-.7-.2s-.4-.3-.5-.5-.2-.5-.2-.8.1-.5.2-.8c.1-.2.3-.4.5-.5s.4-.2.7-.2.6.1.9.3v-.3h.6v2.8h-.6zm0-.9v-1.1c-.2-.3-.5-.4-.8-.4s-.5.1-.7.3-.3.4-.3.7.1.5.3.7.4.3.7.3c.3-.1.6-.2.8-.5z"/><path d="m70.9 170.7v.3c.2-.2.5-.3.8-.3.4 0 .8.2 1 .5.2.2.3.6.3 1v1.4h-.6v-1.4c0-.3-.1-.5-.2-.7s-.3-.3-.6-.3-.6.1-.8.4v1.9h-.6v-2.8z"/><path d="m35.2 202.3h-1.1l3-6h-3.1v-1h4.4v.7z"/><path d="m39.1 200.2c-.1-.4-.1-.9-.1-1.4s0-1 .1-1.4.2-.8.4-1.1.4-.6.8-.8.7-.3 1.1-.3.8.1 1.1.3.6.4.8.8c.2.3.3.7.4 1.1s.1.9.1 1.4 0 1-.1 1.4-.2.8-.4 1.1-.4.6-.8.8c-.3.2-.7.3-1.1.3s-.8-.1-1.1-.3-.6-.4-.8-.8c-.2-.3-.3-.7-.4-1.1zm2.3 1.2c.9 0 1.4-.9 1.4-2.7s-.5-2.6-1.4-2.6-1.4.9-1.4 2.6.4 2.7 1.4 2.7z"/><path d="m51.3 202.3v-.4c-.4.4-.9.5-1.4.5-.4 0-.8-.1-1.2-.3s-.7-.5-.9-.9-.3-.8-.3-1.3.1-.9.3-1.3.5-.7.9-.9c.3-.2.7-.3 1.2-.3.6 0 1.1.2 1.5.5v-.4h.9v4.7h-1zm0-1.5v-1.8c-.3-.4-.8-.7-1.3-.7-.4 0-.8.2-1.1.5s-.4.7-.4 1.1.1.8.4 1.1.7.5 1.1.5c.5 0 .9-.3 1.3-.7zm-.6-4h-.7l-1.1-1.5h1.1z"/><path d="m57.1 196.5-1.3.7v-1l1.7-.9h.7v7h-1v-5.8z"/><path d="m60 200.2c-.1-.4-.1-.9-.1-1.4s0-1 .1-1.4.2-.8.4-1.1.4-.6.8-.8c.3-.2.7-.3 1.1-.3s.8.1 1.1.3.6.4.8.8c.2.3.3.7.4 1.1s.1.9.1 1.4 0 1-.1 1.4-.2.8-.4 1.1-.4.6-.8.8-.7.3-1.1.3-.8-.1-1.1-.3-.6-.4-.8-.8c-.2-.3-.3-.7-.4-1.1zm2.3 1.2c.9 0 1.4-.9 1.4-2.7s-.5-2.6-1.4-2.6-1.4.9-1.4 2.6.4 2.7 1.4 2.7z"/><path d="m65.9 200.2c-.1-.4-.1-.9-.1-1.4s0-1 .1-1.4.2-.8.4-1.1.4-.6.8-.8.7-.3 1.1-.3.8.1 1.1.3.6.4.8.8c.2.3.3.7.4 1.1s.1.9.1 1.4 0 1-.1 1.4-.2.8-.4 1.1-.4.6-.8.8c-.3.2-.7.3-1.1.3s-.8-.1-1.1-.3-.6-.4-.8-.8c-.2-.3-.3-.7-.4-1.1zm2.3 1.2c.9 0 1.4-.9 1.4-2.7s-.5-2.6-1.4-2.6-1.4.9-1.4 2.6.4 2.7 1.4 2.7z"/><path d="m35.2 207.9 1.6 1.5h-.8l-1.4-1.4v1.4h-.6v-4.3h.6v2.5l1.2-1.1h.8z"/><path d="m39.2 209.2c-.2.2-.5.3-.9.3-.3 0-.5-.1-.7-.2s-.4-.3-.5-.5-.2-.5-.2-.8.1-.5.2-.8c.1-.2.3-.4.5-.5s.4-.2.7-.2.6.1.9.3v-.3h.6v2.7c0 .4-.1.7-.2.9s-.3.4-.5.5-.5.2-.7.2c-.3 0-.6-.1-.9-.2-.2-.1-.4-.3-.5-.5l.4-.4c.3.3.6.5.9.5s.5-.1.7-.3c.1-.2.2-.4.2-.7zm0-.6v-1.1c-.2-.3-.5-.4-.8-.4s-.5.1-.7.3-.3.4-.3.7.1.5.3.7.4.3.7.3c.3-.1.6-.2.8-.5z"/><path d="m42.1 207.4c0-.6.2-1.1.6-1.5s.9-.6 1.5-.6c.3 0 .6.1.9.2s.5.3.7.5l-.4.4c-.1-.1-.3-.3-.5-.3-.2-.1-.4-.1-.6-.1-.4 0-.8.2-1.1.5s-.4.7-.4 1.1c0 .5.2.8.5 1.1s.7.4 1.1.4c.5 0 .9-.2 1.2-.6l.4.4c-.2.2-.4.4-.7.6-.3.1-.6.2-.9.2-.6 0-1.1-.2-1.6-.6-.5-.6-.7-1.1-.7-1.7z"/><path d="m46.8 208.9c-.4-.4-.6-.9-.6-1.5s.2-1.1.6-1.5.9-.6 1.5-.6 1.1.2 1.5.6.6.9.6 1.5-.2 1.1-.6 1.5-.9.6-1.5.6-1.1-.2-1.5-.6zm0-1.5c0 .5.1.8.4 1.1s.6.5 1.1.5.8-.2 1.1-.5.4-.7.4-1.1c0-.5-.1-.8-.4-1.1s-.6-.5-1.1-.5-.8.2-1.1.5c-.3.2-.4.6-.4 1.1z"/><path d="m51.3 206.3-.5-.2c.1-.2.2-.4.3-.6.2-.2.3-.2.5-.3.1 0 .3-.1.4-.1.4 0 .7.1.9.4s.4.5.4.9-.2.8-.5 1.2l-1.1 1.2h1.6v.6h-2.5v-.4l1.4-1.6c.2-.2.3-.4.4-.5s.1-.3.1-.5-.1-.4-.2-.5-.3-.2-.5-.2c-.3.1-.5.3-.7.6z"/><path d="m54.4 209.5h-.6l2-4.2h.6z"/><path d="m56.9 206.7h.6v.3c.1-.1.2-.2.3-.2.2-.1.3-.1.5-.1.4 0 .7.2 1 .5.3-.3.7-.5 1.1-.5s.8.2 1 .5c.2.2.3.5.3 1v1.4h-.7v-1.5c0-.2-.1-.4-.2-.6s-.3-.2-.5-.2c-.3 0-.6.1-.9.4v.5 1.4h-.4v-1.5c0-.2-.1-.4-.2-.6s-.3-.2-.5-.2c-.3 0-.6.1-.8.4v1.9h-.6z"/><path d="m62.7 205.9-.4-.1c0-.2.1-.3.3-.4.1-.1.3-.2.5-.2s.4.1.5.2.2.3.2.5-.1.4-.3.6l-.5.5h.7v.4h-1.5v-.2l.8-.9c.1-.1.2-.3.2-.4s0-.1-.1-.2-.1-.1-.2-.1-.2.1-.2.3z"/><path d="m64.5 209.5h-.5l2-4.2h.6z"/><path d="m68.8 209.5v-.3c-.2.2-.5.3-.9.3-.3 0-.5-.1-.7-.2s-.4-.3-.5-.5-.2-.5-.2-.8.1-.5.2-.8c.1-.2.3-.4.5-.5s.4-.2.7-.2.6.1.9.3v-.3h.6v2.8h-.6zm0-.9v-1.1c-.2-.3-.5-.4-.8-.4s-.5.1-.7.3-.3.4-.3.7.1.5.3.7.4.3.7.3c.3-.1.6-.2.8-.5z"/><path d="m70.9 206.7v.3c.2-.2.5-.3.8-.3.4 0 .8.2 1 .5.2.2.3.6.3 1v1.4h-.6v-1.4c0-.3-.1-.5-.2-.7s-.3-.3-.6-.3-.6.1-.8.4v1.9h-.6v-2.8z"/><path d="m34.1 234.9 2.8-1.2-2.8-1.2v-1l4.4 1.9v.6l-4.4 1.9z"/><path d="m43 230.5-1.3.7v-1l1.7-.9h.6v7h-1z"/><path d="m45.9 234.2c-.1-.4-.1-.9-.1-1.4s0-1 .1-1.4.2-.8.4-1.1.4-.6.8-.8c.3-.2.7-.3 1.1-.3s.8.1 1.1.3.6.4.8.8c.2.3.3.7.4 1.1s.1.9.1 1.4 0 1-.1 1.4-.2.8-.4 1.1-.4.6-.8.8-.7.3-1.1.3-.8-.1-1.1-.3-.6-.4-.8-.8c-.2-.3-.3-.7-.4-1.1zm2.3 1.2c.9 0 1.4-.9 1.4-2.7s-.5-2.6-1.4-2.6-1.4.9-1.4 2.6.4 2.7 1.4 2.7z"/><path d="m51.8 234.2c-.1-.4-.1-.9-.1-1.4s0-1 .1-1.4.2-.8.4-1.1.4-.6.8-.8.7-.3 1.1-.3.8.1 1.1.3.6.4.8.8c.2.3.3.7.4 1.1s.1.9.1 1.4 0 1-.1 1.4-.2.8-.4 1.1-.4.6-.8.8c-.3.2-.7.3-1.1.3s-.8-.1-1.1-.3-.6-.4-.8-.8c-.2-.3-.3-.7-.4-1.1zm2.3 1.2c.9 0 1.4-.9 1.4-2.7s-.5-2.6-1.4-2.6-1.4.9-1.4 2.6.4 2.7 1.4 2.7z"/><path d="m35.2 241.9 1.6 1.5h-.8l-1.4-1.4v1.4h-.6v-4.3h.6v2.5l1.2-1.1h.8z"/><path d="m39.2 243.2c-.2.2-.5.3-.9.3-.3 0-.5-.1-.7-.2s-.4-.3-.5-.5-.2-.5-.2-.8.1-.5.2-.8c.1-.2.3-.4.5-.5s.4-.2.7-.2.6.1.9.3v-.3h.6v2.7c0 .4-.1.7-.2.9s-.3.4-.5.5-.5.2-.7.2c-.3 0-.6-.1-.9-.2-.2-.1-.4-.3-.5-.5l.4-.4c.3.3.6.5.9.5s.5-.1.7-.3c.1-.2.2-.4.2-.7zm0-.6v-1.1c-.2-.3-.5-.4-.8-.4s-.5.1-.7.3-.3.4-.3.7.1.5.3.7.4.3.7.3c.3-.1.6-.2.8-.5z"/><path d="m42.1 241.4c0-.6.2-1.1.6-1.5s.9-.6 1.5-.6c.3 0 .6.1.9.2s.5.3.7.5l-.4.4c-.1-.1-.3-.3-.5-.3-.2-.1-.4-.1-.6-.1-.4 0-.8.2-1.1.5s-.4.7-.4 1.1c0 .5.2.8.5 1.1s.7.4 1.1.4c.5 0 .9-.2 1.2-.6l.4.4c-.2.2-.4.4-.7.6-.3.1-.6.2-.9.2-.6 0-1.1-.2-1.6-.6-.5-.6-.7-1.1-.7-1.7z"/><path d="m46.8 242.9c-.4-.4-.6-.9-.6-1.5s.2-1.1.6-1.5.9-.6 1.5-.6 1.1.2 1.5.6.6.9.6 1.5-.2 1.1-.6 1.5-.9.6-1.5.6-1.1-.2-1.5-.6zm0-1.5c0 .5.1.8.4 1.1s.6.5 1.1.5.8-.2 1.1-.5.4-.7.4-1.1c0-.5-.1-.8-.4-1.1s-.6-.5-1.1-.5-.8.2-1.1.5c-.3.2-.4.6-.4 1.1z"/><path d="m51.3 240.3-.5-.2c.1-.2.2-.4.3-.6.2-.2.3-.2.5-.3.1 0 .3-.1.4-.1.4 0 .7.1.9.4s.4.5.4.9-.2.8-.5 1.2l-1.1 1.2h1.6v.6h-2.5v-.4l1.4-1.6c.2-.2.3-.4.4-.5s.1-.3.1-.5-.1-.4-.2-.5-.3-.2-.5-.2c-.3.1-.5.3-.7.6z"/><path d="m54.4 243.5h-.6l2-4.2h.6z"/><path d="m56.9 240.7h.6v.3c.1-.1.2-.2.3-.2.2-.1.3-.1.5-.1.4 0 .7.2 1 .5.3-.3.7-.5 1.1-.5s.8.2 1 .5c.2.2.3.5.3 1v1.4h-.7v-1.5c0-.2-.1-.4-.2-.6s-.3-.2-.5-.2c-.3 0-.6.1-.9.4v.5 1.4h-.4v-1.5c0-.2-.1-.4-.2-.6s-.3-.2-.5-.2c-.3 0-.6.1-.8.4v1.9h-.6z"/><path d="m62.7 239.9-.4-.1c0-.2.1-.3.3-.4.1-.1.3-.2.5-.2s.4.1.5.2.2.3.2.5-.1.4-.3.6l-.5.5h.7v.4h-1.5v-.2l.8-.9c.1-.1.2-.3.2-.4s0-.1-.1-.2-.1-.1-.2-.1-.2.1-.2.3z"/><path d="m64.5 243.5h-.5l2-4.2h.6z"/><path d="m68.8 243.5v-.3c-.2.2-.5.3-.9.3-.3 0-.5-.1-.7-.2s-.4-.3-.5-.5-.2-.5-.2-.8.1-.5.2-.8c.1-.2.3-.4.5-.5s.4-.2.7-.2.6.1.9.3v-.3h.6v2.8h-.6zm0-.9v-1.1c-.2-.3-.5-.4-.8-.4s-.5.1-.7.3-.3.4-.3.7.1.5.3.7.4.3.7.3c.3-.1.6-.2.8-.5z"/><path d="m70.9 240.7v.3c.2-.2.5-.3.8-.3.4 0 .8.2 1 .5.2.2.3.6.3 1v1.4h-.6v-1.4c0-.3-.1-.5-.2-.7s-.3-.3-.6-.3-.6.1-.8.4v1.9h-.6v-2.8z"/></g></svg>